<?xml version="1.0" encoding="UTF-8"?>
<svg id="Layer_1" data-name="Layer 1" xmlns="http://www.w3.org/2000/svg" viewBox="0 0 593.3 73.74">
  <defs>
    <style>
      .cls-1 {
        fill: #9aa5ad;
      }

      .cls-2 {
        fill: #677882;
      }

      .cls-3 {
        fill: #344b59;
      }
    </style>
  </defs>
  <path class="cls-3" d="M150.76,28.39c0-3.92-2.55-6.6-7.13-6.6h-14.77v13.27h14.58c4.9,0,7.32-2.68,7.32-6.67M160.3,28.39c0,8.96-5.95,14.77-16.08,14.77h-15.36v16.28h-9.09V13.68h24.64c9.87,0,15.89,5.88,15.89,14.71"/>
  <polygon class="cls-3" points="204.74 51.07 204.74 59.44 170.74 59.44 170.74 13.68 179.83 13.68 179.83 51.07 204.74 51.07"/>
  <path class="cls-3" d="M242.06,41.14l-7.45-17.45h-.59l-7.45,17.45h15.49ZM245.33,48.78h-22.03l-4.51,10.66h-9.94l19.87-45.76h11.18l19.87,45.76h-9.94l-4.51-10.66Z"/>
  <polygon class="cls-3" points="305.09 13.68 285.35 39.17 285.35 59.44 276.07 59.44 276.07 39.17 256.39 13.68 267.7 13.68 280.38 29.76 280.97 29.76 293.72 13.68 305.09 13.68"/>
  <path class="cls-3" d="M347.67,36.33c0-8.76-4.64-14.25-13.53-14.25h-11.72v29.02h11.72c9.09,0,13.53-6.21,13.53-14.77M357.21,36.46c0,14.32-9.02,23.01-22.75,23.01h-21.4V13.71h21.4c13.73,0,22.75,8.43,22.75,22.75"/>
  <polygon class="cls-3" points="404.6 51.36 404.6 59.47 367.53 59.47 367.53 13.71 403.95 13.71 403.95 21.81 376.62 21.81 376.62 32.27 400.22 32.27 400.22 40.25 376.62 40.25 376.62 51.36 404.6 51.36"/>
  <path class="cls-3" d="M434.74,60.12c-13.6,0-20.33-6.01-20.85-14.9h9.61c.78,4.51,3.99,7,11.24,7,5.43,0,9.48-1.37,9.48-5.16,0-4.31-4.77-5.49-9.48-6.6l-6.41-1.24c-7.19-1.63-13.01-5.29-13.01-12.68,0-8.56,7.78-13.47,18.83-13.47,11.83,0,18.43,5.69,18.96,13.6h-9.67c-.65-3.4-3.4-5.69-9.28-5.69s-9.02,1.89-9.02,5.1c0,3.4,3.66,4.64,8.37,5.75l6.27,1.11c7.39,1.57,14.19,5.3,14.19,13.99,0,9.35-9.41,13.2-19.22,13.2"/>
  <rect class="cls-3" x="465.76" y="13.71" width="9.35" height="45.76"/>
  <path class="cls-3" d="M535.83,34.36v25.1h-7.32l-.92-4.64h-.59c-1.96,2.16-7.71,5.29-16.28,5.29-15.95,0-25.17-9.54-25.17-22.81,0-13.99,10.46-24.25,26.54-24.25,13.73,0,21.96,6.86,23.27,15.1h-10.33c-1.57-3.99-6.15-6.54-12.94-6.54-10.92,0-17,6.6-17,15.69,0,8.5,5.36,14.58,16.34,14.58,8.76,0,15.17-3.07,15.17-8.76v-1.57h-14.64v-7.19h23.86Z"/>
  <polygon class="cls-3" points="593.3 13.71 593.3 59.47 583.88 59.47 558.06 28.42 557.47 28.42 557.47 59.47 548.39 59.47 548.39 13.71 557.8 13.71 583.69 44.95 584.27 44.95 584.27 13.71 593.3 13.71"/>
  <polygon class="cls-3" points="24.06 41.1 0 57.72 0 73.74 58.6 73.74 82.89 56.97 82.89 41.1 24.06 41.1"/>
  <polygon class="cls-2" points="82.89 16.78 24.06 16.78 0 27.88 0 33.55 58.69 33.55 82.89 22.38 82.89 16.78"/>
  <polygon class="cls-1" points="82.89 0 24.06 0 0 5.6 0 9.22 58.69 9.22 82.89 3.59 82.89 0"/>
</svg>